<?xml version="1.0" encoding="UTF-8" standalone="no"?>
<svg
   xmlns:dc="http://purl.org/dc/elements/1.1/"
   xmlns:cc="http://creativecommons.org/ns#"
   xmlns:rdf="http://www.w3.org/1999/02/22-rdf-syntax-ns#"
   xmlns:svg="http://www.w3.org/2000/svg"
   xmlns="http://www.w3.org/2000/svg"
   xmlns:sodipodi="http://sodipodi.sourceforge.net/DTD/sodipodi-0.dtd"
   xmlns:inkscape="http://www.inkscape.org/namespaces/inkscape"
   inkscape:label="Logo"
   inkscape:version="1.0 (4035a4fb49, 2020-05-01)"
   sodipodi:docname="HTLogo_FINAL.svg"
   id="svg26"
   version="1.1"
   viewBox="0 0 468.74905 468.74905"
   height="500"
   width="500">
  <sodipodi:namedview
     units="px"
     inkscape:snap-page="true"
     inkscape:snap-global="true"
     inkscape:snap-bbox-midpoints="true"
     inkscape:snap-bbox-edge-midpoints="true"
     inkscape:bbox-nodes="true"
     inkscape:bbox-paths="true"
     inkscape:snap-bbox="true"
     inkscape:guide-bbox="true"
     showguides="false"
     inkscape:current-layer="svg26"
     inkscape:window-maximized="1"
     inkscape:window-y="-8"
     inkscape:window-x="-8"
     inkscape:cy="229.30913"
     inkscape:cx="285.96318"
     inkscape:zoom="1.4142136"
     showgrid="false"
     id="namedview24"
     inkscape:window-height="1017"
     inkscape:window-width="1920"
     inkscape:pageshadow="2"
     inkscape:pageopacity="0"
     guidetolerance="10"
     gridtolerance="10"
     objecttolerance="10"
     borderopacity="1"
     bordercolor="#666666"
     pagecolor="#2e2e2e">
    <sodipodi:guide
       id="guide922"
       orientation="0,-1"
       position="327.20954,731.2091" />
    <sodipodi:guide
       id="guide924"
       orientation="1,0"
       position="765.88238,1500.0001" />
    <sodipodi:guide
       id="guide938"
       orientation="0,-1"
       position="-91.764709,1101.1765" />
    <sodipodi:guide
       id="guide976"
       orientation="0,-1"
       position="-343.12432,645.00175" />
  </sodipodi:namedview>
  <metadata
     id="metadata32">
    <rdf:RDF>
      <cc:Work
         rdf:about="">
        <dc:format>image/svg+xml</dc:format>
        <dc:type
           rdf:resource="http://purl.org/dc/dcmitype/StillImage" />
        <dc:title></dc:title>
      </cc:Work>
    </rdf:RDF>
  </metadata>
  <defs
     id="defs30" />
  <g
     transform="translate(-432.19594,-450.71622)"
     id="g1075">
    <ellipse
       inkscape:label="whiteCircle"
       transform="matrix(0.99479362,-0.10191033,0.10192781,0.99479184,0,0)"
       style="display:inline;opacity:1;mix-blend-mode:normal;fill:#ffffff;fill-opacity:1;fill-rule:evenodd;stroke:#000000;stroke-width:3.39608;stroke-miterlimit:4;stroke-dasharray:none;image-rendering:optimizeSpeed"
       id="circle951-2"
       ry="232.63896"
       rx="232.65863"
       cy="749.43744"
       cx="593.27075">
      <title
         id="title949-7">outerCircle</title>
    </ellipse>
    <ellipse
       style="display:inline;opacity:1;mix-blend-mode:normal;fill:none;fill-rule:evenodd;stroke:#000000;stroke-width:10.7131;stroke-miterlimit:4;stroke-dasharray:none;image-rendering:optimizeSpeed"
       id="outerCircle"
       cx="666.57043"
       cy="685.07379"
       rx="229.00104"
       ry="229.00102"
       inkscape:label="OuterCircle">
      <title
         id="title942">outerCircle</title>
    </ellipse>
    <ellipse
       ry="216.162"
       rx="216.18034"
       cy="749.43744"
       cx="593.27075"
       id="circle951"
       style="display:inline;opacity:1;mix-blend-mode:normal;fill:#000000;fill-opacity:1;fill-rule:evenodd;stroke:#000000;stroke-width:3.15556;stroke-miterlimit:4;stroke-dasharray:none;image-rendering:optimizeSpeed"
       transform="matrix(0.99479362,-0.10191033,0.10192782,0.99479184,0,0)"
       inkscape:label="InnerCircle">
      <title
         id="title949">outerCircle</title>
    </ellipse>
    <circle
       cy="685.07379"
       cx="666.57043"
       id="outerCircle-4"
       style="display:inline;opacity:1;mix-blend-mode:normal;fill:none;fill-rule:evenodd;stroke:#ffffff;stroke-width:2.96591;stroke-miterlimit:4;stroke-dasharray:none;stroke-opacity:1;image-rendering:optimizeSpeed"
       inkscape:label="innerCircle2"
       r="137.6609">
      <title
         id="title942-3">outerCircle</title>
    </circle>
    <path
       id="Selection #3-5-8"
       fill="none"
       stroke="#000000"
       stroke-width="1"
       d="m 692.6458,578.04662 h -53.36126 v 59.4228 l -52.75383,-28.49814 -24.85995,46.68912 39.41274,22.01582 10.91458,5.87806 -50.93474,30.31724 24.34428,43.04143 3.0023,2.54992 39.96004,-22.65171 10.91458,-5.96031 v 60.63446 l 54.57294,0.60741 0.60742,-60.63761 47.29653,26.59673 4.11591,1.40786 2.73653,-3.14152 23.4648,-42.44666 -51.54214,-29.71298 50.33043,-30.31724 -26.68217,-45.47744 -51.53899,29.71298 z"
       style="display:inline;fill:#00591c;fill-opacity:1;stroke:#ffffff;stroke-width:1.48296;stroke-miterlimit:4;stroke-dasharray:none;stroke-opacity:1"
       inkscape:label="Cross" />
    <path
       id="Selection #3-5-5"
       fill="none"
       stroke="#000000"
       stroke-width="1"
       d="m 674.31485,618.36337 v -12.73369 c -0.0253,-1.85389 -0.0507,-3.78372 -1.1231,-5.39085 -2.18292,-3.2554 -7.694,-3.34081 -9.83579,0 -1.3825,2.1671 -1.17687,5.90653 -1.17054,8.4248 0,1.20535 -0.13921,3.52113 0.62008,4.48604 0.97123,1.22434 2.79982,0.76561 4.83721,1.35722 2.46448,0.71814 4.55565,2.46447 6.67214,3.85648 z m -14.55279,40.02015 c 0,-2.61318 0.24044,-10.05724 -0.39545,-12.12626 -0.94593,-3.06874 -5.83377,-8.01036 -4.31838,-12.73369 1.86971,-5.77998 8.30773,-5.31809 12.59448,-7.42192 2.23353,-1.09145 4.84038,-3.06874 3.86914,-5.7958 -2.19557,-6.58038 -14.48634,-3.47685 -18.00749,0 -7.44722,7.68766 -5.19787,20.38971 -1.15157,28.98218 1.67358,3.55594 3.87864,7.17515 7.40927,9.09549 z m 6.06155,-39.41273 2.03314,-0.16113 1.0008,1.37281 c -2.8331,0.35305 -1.78526,0.85917 -3.03394,-1.21168 z m 7.27639,6.66897 -9.10181,4.6822 -0.59794,4.41329 v 20.61749 l 0.60426,9.70291 v 16.97614 c 3.34714,-1.24648 7.47254,-4.18234 8.4248,-7.88065 V 669.2981 L 673.1,662.02171 Z m 4.24562,32.74376 c -1.75266,4.42278 0.86684,11.48721 -2.43285,16.9793 -1.42996,2.38855 -6.20708,6.88726 -8.48174,8.69054 -6.48865,5.15991 -12.83809,9.2948 -8.38051,18.59592 0.78143,1.62611 1.71788,2.92321 2.92322,4.24562 1.47426,-4.41013 2.14812,-6.65949 5.63446,-10.04142 5.9097,-5.73569 16.90969,-8.99425 17.89992,-20.88324 0.18033,-2.16077 -0.69285,-7.03596 -1.43313,-9.09549 -1.28445,-3.6034 -3.58758,-5.48893 -5.72937,-8.49123 z m -5.45729,38.20105 c -10.47168,3.57176 -6.76705,14.84383 -6.66897,23.044 v 5.45732 c 3.06874,-1.06931 5.30544,-3.53066 6.27351,-6.67217 0.55997,-1.81276 0.39546,-5.82743 0.39546,-7.88063 z m 4.24561,12.12942 c -1.31608,3.29653 -0.32269,8.0926 -3.45787,12.73367 -3.84382,5.69777 -16.31177,10.88931 -12.9583,23.04088 0.56945,2.0627 0.99656,2.74605 2.46765,4.24562 0.0633,-2.88841 0.32901,-5.92551 1.88553,-8.43429 2.40121,-3.88179 7.08341,-5.71987 10.11418,-9.16192 5.84642,-6.62784 6.55508,-14.9546 1.94881,-22.42396 z m -4.85303,29.10558 c -2.18292,0.64222 -3.74577,1.50274 -4.83723,3.6382 -0.67386,1.33189 -0.60741,2.7935 -0.62007,4.24246 v 14.55276 c 0,1.83807 0.43658,9.48461 1.22749,10.74061 0.56947,0.90161 0.99339,0.92691 1.80645,1.38881 l 1.81911,-12.73368 z m 3.63819,17.58356 -3.03077,12.73366 c 4.74863,-3.60656 4.96692,-7.43456 3.03077,-12.73366 z"
       style="display:inline;fill:#ffffff;fill-opacity:1;stroke:#ffffff;stroke-width:0;stroke-miterlimit:4;stroke-dasharray:none;stroke-opacity:1"
       inkscape:label="Snake"
       sodipodi:nodetypes="cccccccccccccccccccccccccccccccccccccccccccscccccccccccsccccccc" />
    <g
       id="layer2"
       inkscape:label="Text"
       style="display:inline"
       transform="matrix(0.3163648,0,0,0.3163648,423.90899,441.85538)">
      <g
         aria-label="Training Services"
         transform="translate(-5.1508769e-6,4.4720465e-5)"
         id="text974"
         style="font-style:normal;font-variant:normal;font-weight:bold;font-stretch:normal;font-size:180.5px;line-height:1.25;font-family:Corbel;-inkscape-font-specification:'Corbel, Bold';font-variant-ligatures:normal;font-variant-caps:normal;font-variant-numeric:normal;font-variant-east-asian:normal;letter-spacing:26.0437px;word-spacing:5.88416px;display:inline;fill:#ffffff;fill-opacity:1;stroke:none;stroke-width:0.914299"
         inkscape:label="Lower Text">
        <path
           inkscape:label="lT"
           d="m 170.02363,948.24739 -6.02959,-20.73409 95.88458,-27.8838 -10.63178,-36.5597 17.34893,-5.04517 27.26854,93.76886 -17.34893,5.04517 -10.60717,-36.47507 z"
           style="font-style:normal;font-variant:normal;font-weight:bold;font-stretch:normal;font-size:180.5px;font-family:Corbel;-inkscape-font-specification:'Corbel, Bold';font-variant-ligatures:normal;font-variant-caps:normal;font-variant-numeric:normal;font-variant-east-asian:normal;stroke-width:0.914299"
           id="path995" />
        <path
           d="m 275.7437,1027.2775 -0.76469,-1.5881 q -4.16759,-8.6557 -9.96159,-13.9849 -5.67635,-5.288 -12.71734,-6.2997 l -51.53664,24.8143 -9.06164,-18.82 76.94762,-37.04946 7.49402,15.56422 -9.87909,6.9087 0.15293,0.31764 q 7.48215,0.50582 13.60848,4.6968 6.24398,4.2322 10.18216,12.4114 1.37645,2.8587 2.05292,5.0763 z"
           style="font-style:normal;font-variant:normal;font-weight:bold;font-stretch:normal;font-size:180.5px;font-family:Corbel;-inkscape-font-specification:'Corbel, Bold';font-variant-ligatures:normal;font-variant-caps:normal;font-variant-numeric:normal;font-variant-east-asian:normal;stroke-width:0.914299"
           id="path997" />
        <path
           d="m 267.95188,1126.9481 -0.20354,-0.2878 q -2.5289,-0.3706 -5.53685,-1.266 -3.00795,-0.8954 -6.27908,-2.4682 -3.19916,-1.6238 -6.30169,-4.1794 -3.10253,-2.5556 -5.69774,-6.2256 -3.51117,-4.9653 -4.98124,-10.4024 -1.54202,-5.3862 -0.85172,-10.516 0.76226,-5.1806 3.59184,-9.8802 2.95242,-4.6784 8.06161,-8.2914 5.61291,-3.9691 11.49928,-5.1092 5.93726,-1.0681 11.62676,0.4137 5.68951,1.4819 10.88559,5.4716 5.26803,3.9388 9.64427,10.1274 3.20585,4.5335 5.32715,8.7545 2.1213,4.221 3.3652,7.6591 l 2.80645,-1.9845 q 2.44666,-1.7302 4.06679,-4.1712 1.74298,-2.4199 2.14698,-5.5122 0.52685,-3.0711 -0.55205,-6.7339 -1.00694,-3.7137 -4.00925,-7.9594 -3.66383,-5.1811 -8.47902,-9.5481 -4.8152,-4.3669 -11.3924,-8.7832 l 13.31268,-9.414 q 6.01745,3.6247 11.41347,8.6604 5.39602,5.0357 10.04777,11.4612 5.39397,7.6278 7.54303,14.6357 2.19995,7.0799 1.58676,13.2346 -0.49035,6.1758 -3.62885,11.2017 -3.08761,5.0979 -8.34072,8.8126 l -26.26554,18.5736 q -6.9082,4.8851 -11.7717,8.5402 -4.86349,3.6551 -8.64758,6.5469 l -10.88971,-15.3996 z m 21.34088,-17.1421 q -1.15445,-2.8537 -2.9617,-6.3253 -1.73528,-3.5224 -4.02517,-6.7607 -4.42713,-6.2605 -9.54096,-8.1495 -4.99098,-1.8678 -10.10017,1.7451 -2.37469,1.6793 -3.61395,3.743 -1.11641,2.0848 -1.30093,4.2662 -0.13364,2.2534 0.61373,4.5315 0.74736,2.278 2.22307,4.3649 1.83192,2.5906 4.10793,4.4353 2.34797,1.7939 4.72935,3.0244 2.45335,1.1796 4.81725,1.7748 2.41479,0.6672 4.40141,0.8815 z"
           style="font-style:normal;font-variant:normal;font-weight:bold;font-stretch:normal;font-size:180.5px;font-family:Corbel;-inkscape-font-specification:'Corbel, Bold';font-variant-ligatures:normal;font-variant-caps:normal;font-variant-numeric:normal;font-variant-east-asian:normal;stroke-width:0.914299"
           id="path999" />
        <path
           d="m 364.85432,1127.3397 14.50501,15.0303 -61.4531,59.3053 -14.50501,-15.0303 z m 30.01053,-29.6965 15.23944,15.7913 -16.2987,15.7291 -15.23944,-15.7914 z"
           style="font-style:normal;font-variant:normal;font-weight:bold;font-stretch:normal;font-size:180.5px;font-family:Corbel;-inkscape-font-specification:'Corbel, Bold';font-variant-ligatures:normal;font-variant-caps:normal;font-variant-numeric:normal;font-variant-east-asian:normal;stroke-width:0.914299"
           id="path1001" />
        <path
           d="m 412.13602,1189.7868 0.28164,0.212 q 3.06896,-0.999 6.8594,-1.3445 3.79045,-0.3454 7.84349,0.2791 4.05304,0.6245 8.19225,2.3068 4.26262,1.6648 8.20553,4.6335 3.73168,2.8097 6.54558,6.2522 2.88431,3.4955 4.39276,7.4997 1.56147,3.9337 1.57065,8.4638 0.1326,4.5128 -1.56873,9.4099 -0.93929,2.7128 -2.68951,5.477 -1.62681,2.7468 -4.17139,6.1264 l -33.34471,44.2873 -16.68695,-12.5639 31.38325,-41.6822 q 2.06748,-2.7459 3.34059,-4.8764 1.27312,-2.1305 1.8231,-4.0332 1.1712,-4.193 -0.37369,-7.5627 -1.47448,-3.3166 -5.13575,-6.0732 -4.85823,-3.6579 -11.11381,-4.7271 -6.13217,-1.0867 -12.86897,0.681 l -35.35917,46.9629 -16.68695,-12.5639 51.36887,-68.2264 13.80018,10.3904 z"
           style="font-style:normal;font-variant:normal;font-weight:bold;font-stretch:normal;font-size:180.5px;font-family:Corbel;-inkscape-font-specification:'Corbel, Bold';font-variant-ligatures:normal;font-variant-caps:normal;font-variant-numeric:normal;font-variant-east-asian:normal;stroke-width:0.914299"
           id="path1003" />
        <path
           d="m 495.98024,1234.4453 18.45314,9.7872 -40.0157,75.4476 -18.45314,-9.7871 z m 19.31355,-37.5433 19.38748,10.2827 -10.61304,20.0103 -19.38748,-10.2827 z"
           style="font-style:normal;font-variant:normal;font-weight:bold;font-stretch:normal;font-size:180.5px;font-family:Corbel;-inkscape-font-specification:'Corbel, Bold';font-variant-ligatures:normal;font-variant-caps:normal;font-variant-numeric:normal;font-variant-east-asian:normal;stroke-width:0.914299"
           id="path1005" />
        <path
           d="m 560.30566,1279.137 0.33353,0.1142 q 2.60742,-1.9021 6.10352,-3.4068 3.4961,-1.5047 7.54284,-2.1688 4.04675,-0.6641 8.50365,-0.3494 4.56884,0.2599 9.23835,1.8584 4.41936,1.5129 8.16265,3.9123 3.82666,2.4278 6.50324,5.7662 2.70512,3.2549 4.11969,7.5586 1.52648,4.2488 1.42888,9.4321 -0.0511,2.8703 -0.85708,6.0412 -0.69408,3.116 -2.06424,7.1184 l -17.95485,52.4487 -19.76205,-6.7652 16.89868,-49.3634 q 1.11326,-3.252 1.66237,-5.6724 0.54911,-2.4204 0.48149,-4.3998 -0.18785,-4.3495 -2.70216,-7.0734 -2.43093,-2.6953 -6.7669,-4.1796 -5.75351,-1.9696 -12.03208,-1.0448 -6.16664,0.8699 -12.02226,4.641 l -19.03956,55.6173 -19.76205,-6.7652 27.66018,-80.7993 16.34329,5.5949 z"
           style="font-style:normal;font-variant:normal;font-weight:bold;font-stretch:normal;font-size:180.5px;font-family:Corbel;-inkscape-font-specification:'Corbel, Bold';font-variant-ligatures:normal;font-variant-caps:normal;font-variant-numeric:normal;font-variant-east-asian:normal;stroke-width:0.914299"
           id="path1007" />
        <path
           d="m 693.23716,1389.9593 q 0.22559,-1.7482 0.55269,-4.2831 0.42579,-2.6111 0.82619,-4.3367 l -0.17482,-0.023 q -2.12605,1.3253 -4.86397,2.5716 -2.63922,1.1701 -5.78036,2.0978 -3.12985,0.8402 -6.80389,1.077 -3.68533,0.3243 -7.44396,-0.1607 -6.73057,-0.8685 -12.89437,-4.0633 -6.06511,-3.2709 -10.38201,-9.071 -4.30561,-5.8875 -6.31599,-14.4114 -2.01037,-8.5239 -0.53278,-19.9746 1.47759,-11.4507 5.64231,-19.6221 4.26341,-8.2476 10.16504,-13.3512 5.90163,-5.1035 12.91701,-7.1308 7.11407,-2.1035 14.19428,-1.1899 7.77949,1.0039 13.38217,5.1038 5.61396,4.0124 8.8058,9.5785 l 0.34964,0.045 2.10354,-9.4149 18.18129,2.3461 -11.13268,86.2737 q -0.95874,7.4298 -2.87052,12.6039 -1.91177,5.1741 -4.80197,8.9779 -3.41749,4.4466 -8.25044,7.4664 -4.74554,3.0312 -10.64433,4.6694 -5.81137,1.6494 -12.60116,1.9285 -6.80108,0.3665 -14.23093,-0.5922 -4.19568,-0.5414 -8.17143,-1.4099 -3.98702,-0.7811 -7.49188,-1.8554 -3.42872,-0.9756 -6.29915,-2.1458 -2.7943,-1.0715 -4.70321,-2.1176 l 2.1769,-16.8702 q 5.52092,2.6675 11.69037,4.4411 6.24558,1.8723 13.23839,2.7747 13.89819,1.7934 22.20218,-2.6447 8.29271,-4.3508 9.70263,-15.277 z m -16.39914,-18.9118 q 3.14676,0.4061 6.0454,-0.02 2.89863,-0.4258 5.41661,-1.345 2.51799,-0.9192 4.54534,-2.1683 2.11477,-1.2378 3.61767,-2.5546 l 4.88394,-37.8486 q -2.81401,-4.362 -7.37059,-7.616 -4.55658,-3.2539 -10.05214,-4.0519 -1.92302,-0.2482 -4.17594,-0.01 -2.15424,0.1664 -4.4974,1.1081 -2.34316,0.9418 -4.6243,2.7802 -2.18244,1.7623 -4.07447,4.7173 -1.89202,2.955 -3.4175,7.2014 -1.43807,4.2577 -2.1825,10.0268 -0.82339,6.3809 -0.25385,11.6086 0.58082,5.1403 2.56585,9.04 1.99631,3.8122 5.33197,6.1976 3.43436,2.3094 8.24191,2.9297 z"
           style="font-style:normal;font-variant:normal;font-weight:bold;font-stretch:normal;font-size:180.5px;font-family:Corbel;-inkscape-font-specification:'Corbel, Bold';font-variant-ligatures:normal;font-variant-caps:normal;font-variant-numeric:normal;font-variant-east-asian:normal;stroke-width:0.914299"
           id="path1009" />
        <path
           d="m 881.92437,1346.9685 q -0.80848,-4.4216 -3.46734,-6.7129 -2.67472,-2.378 -6.71976,-3.4303 -4.04503,-1.0523 -8.91692,-1.2366 -4.80105,-0.2869 -10.10642,-0.392 -7.03189,-0.2373 -13.55201,-1.1058 -6.53598,-0.9552 -11.86759,-3.6538 -5.34747,-2.7852 -9.13635,-7.8266 -3.78888,-5.0413 -5.31073,-13.3643 -1.68037,-9.1899 0.29093,-16.5388 1.95545,-7.4357 6.6089,-12.8559 4.7243,-5.5229 11.69726,-9.0378 7.04381,-3.6174 16.32042,-5.3136 9.27662,-1.6963 18.97284,-1.5877 9.69622,0.1086 16.98175,1.7331 l 3.32904,18.2064 q -9.66648,-1.9059 -18.27477,-1.9446 -8.53745,-0.1413 -15.82003,1.1903 -10.49038,1.9182 -15.51489,6.7792 -4.93782,4.8451 -3.54279,12.4744 0.80848,4.4216 3.15226,6.9497 2.43048,2.5123 5.98704,3.8331 3.5407,1.2341 7.90826,1.6002 4.36756,0.3661 9.22359,0.4638 7.65463,0.2131 14.71078,1.0731 7.12701,0.7576 12.99466,3.4477 5.86765,2.6902 9.98003,8.0307 4.09653,5.2539 5.76105,14.3571 1.71208,9.3634 -0.50346,16.8465 -2.21554,7.4832 -7.80681,13.1646 -5.52043,5.5788 -14.22733,9.4108 -8.70691,3.8319 -19.54408,5.8135 -9.45002,1.7279 -18.98869,1.5009 -9.43613,-0.1561 -16.1232,-2.4276 l -3.28148,-17.9463 q 9.2647,2.1585 17.7313,2.4023 8.45075,0.1571 17.12049,-1.4281 5.02845,-0.9195 9.74083,-2.5875 4.69652,-1.7547 8.1466,-4.4463 3.53677,-2.7074 5.25935,-6.5166 1.70672,-3.8959 0.78727,-8.9243 z"
           style="font-style:normal;font-variant:normal;font-weight:bold;font-stretch:normal;font-size:180.5px;font-family:Corbel;-inkscape-font-specification:'Corbel, Bold';font-variant-ligatures:normal;font-variant-caps:normal;font-variant-numeric:normal;font-variant-east-asian:normal;stroke-width:0.914299"
           id="path1011" />
        <path
           d="m 991.3674,1334.6793 q 5.64657,-2.2579 11.326,-5.8579 5.6795,-3.6 11.1299,-8.2475 l 6.1848,15.4668 q -3.1099,3.1419 -10.2951,7.7238 -7.1852,4.5818 -15.53235,7.9196 -8.42895,3.3706 -16.89037,4.2862 -8.41232,0.8011 -15.98961,-1.7691 -7.5773,-2.5703 -14.00857,-8.9211 -6.34944,-6.3834 -10.73447,-17.3492 -4.31958,-10.8022 -4.44955,-20.1473 -0.12998,-9.3451 2.98036,-16.7587 3.11034,-7.4136 8.77359,-12.7157 5.71236,-5.4166 12.91379,-8.2963 7.52876,-3.0106 14.74629,-3.239 7.29936,-0.2611 13.84553,2.8164 6.62801,3.0448 12.27366,9.8046 5.6948,6.6453 9.9162,17.2019 1.5543,4.1244 2.536,7.0541 l -51.96484,20.7798 q 2.60168,5.3193 6.2183,8.4292 3.58389,3.0281 7.83899,4.1742 4.30421,1.0315 9.18141,0.4101 4.84447,-0.7033 10.00004,-2.7649 z m -28.78313,-49.4289 q -3.68255,1.4726 -5.99045,4.0091 -2.34061,2.4547 -3.51931,5.6788 -1.12959,3.1094 -1.11359,6.71 0.016,3.6006 1.01396,7.2831 l 31.17892,-12.4679 q -1.40714,-3.5189 -3.63267,-6.2359 -2.14369,-2.7498 -4.94216,-4.2885 -2.74935,-1.6532 -6.05531,-1.85 -3.25684,-0.3113 -6.93939,1.1613 z"
           style="font-style:normal;font-variant:normal;font-weight:bold;font-stretch:normal;font-size:180.5px;font-family:Corbel;-inkscape-font-specification:'Corbel, Bold';font-variant-ligatures:normal;font-variant-caps:normal;font-variant-numeric:normal;font-variant-east-asian:normal;stroke-width:0.914299"
           id="path1013" />
        <path
           d="m 1072.4474,1232.3604 -1.5055,0.9167 q -8.2053,4.9963 -12.9407,11.2849 -4.706,6.1675 -5.0224,13.2738 l 29.7482,48.8551 -17.8408,10.8634 -44.416,-72.944 14.7544,-8.984 7.8441,9.154 0.3011,-0.1833 q -0.2303,-7.4957 3.3398,-14.0035 3.5996,-6.6288 11.3532,-11.3501 2.71,-1.6501 4.8505,-2.5407 z"
           style="font-style:normal;font-variant:normal;font-weight:bold;font-stretch:normal;font-size:180.5px;font-family:Corbel;-inkscape-font-specification:'Corbel, Bold';font-variant-ligatures:normal;font-variant-caps:normal;font-variant-numeric:normal;font-variant-east-asian:normal;stroke-width:0.914299"
           id="path1015" />
        <path
           d="m 1142.4735,1155.4859 30.6315,86.2998 -15.7026,13.5055 -80.8132,-43.1394 16.705,-14.3676 30.2847,16.9648 q 12.841,7.0906 25.0137,14.7559 l 0.2673,-0.2299 q -4.9521,-11.4344 -10.6367,-26.4238 l -12.5883,-32.8827 z"
           style="font-style:normal;font-variant:normal;font-weight:bold;font-stretch:normal;font-size:180.5px;font-family:Corbel;-inkscape-font-specification:'Corbel, Bold';font-variant-ligatures:normal;font-variant-caps:normal;font-variant-numeric:normal;font-variant-east-asian:normal;stroke-width:0.914299"
           id="path1017" />
        <path
           d="m 1160.8042,1136.5485 13.6423,-15.8175 64.6714,55.7783 -13.6424,15.8175 z m -32.314,-27.1722 14.3331,-16.6183 17.1523,14.7936 -14.3332,16.6184 z"
           style="font-style:normal;font-variant:normal;font-weight:bold;font-stretch:normal;font-size:180.5px;font-family:Corbel;-inkscape-font-specification:'Corbel, Bold';font-variant-ligatures:normal;font-variant-caps:normal;font-variant-numeric:normal;font-variant-east-asian:normal;stroke-width:0.914299"
           id="path1019" />
        <path
           d="m 1302.2785,1085.6798 q -0.7319,4.2424 -2.8605,9.6831 -2.0544,5.4882 -5.4805,10.8295 -4.9964,7.7894 -11.5522,13.1127 -6.5558,5.3233 -14.3168,7.4652 -7.7611,2.1419 -16.5161,0.6097 -8.8292,-1.5798 -18.1023,-7.5279 -10.3859,-6.6619 -15.6631,-14.7587 -5.2772,-8.0968 -6.4981,-16.3142 -1.2476,-8.3392 0.8361,-16.3216 2.0571,-8.1042 6.197,-14.5583 3.093,-4.822 6.8383,-8.7021 3.6712,-3.9276 7.4865,-6.611 l 14.3177,9.1839 q -3.5032,2.36 -6.6985,5.5458 -3.2219,3.0641 -5.9342,7.2926 -2.7124,4.2285 -3.8515,8.9427 -1.2132,4.6666 -0.2976,9.4422 0.9156,4.7756 4.4473,9.5539 3.505,4.6565 10.0333,8.844 4.7478,3.0454 9.8329,4.4224 5.0109,1.3295 9.5961,0.7106 4.6329,-0.6931 9.0095,-3.4353 4.3501,-2.8639 7.8238,-8.2794 3.093,-4.8221 4.6506,-9.3725 1.5576,-4.5504 2.3846,-8.9412 z"
           style="font-style:normal;font-variant:normal;font-weight:bold;font-stretch:normal;font-size:180.5px;font-family:Corbel;-inkscape-font-specification:'Corbel, Bold';font-variant-ligatures:normal;font-variant-caps:normal;font-variant-numeric:normal;font-variant-east-asian:normal;stroke-width:0.914299"
           id="path1021" />
        <path
           d="m 1329.2392,1002.1956 q 2.315,-5.62341 3.6903,-12.20555 1.3753,-6.58214 1.8397,-13.72988 l 15.4033,6.34102 q 0.087,4.41997 -1.6336,12.76629 -1.7203,8.34632 -5.1424,16.65922 -3.4557,8.3944 -8.6949,15.1015 -5.2871,6.5921 -12.4105,10.2361 -7.1234,3.6439 -16.1599,3.8317 -9.003,0.1062 -19.9239,-4.3895 -10.7578,-4.4287 -17.5513,-10.8471 -6.7935,-6.4185 -9.9438,-13.8152 -3.1502,-7.3967 -3.007,-15.15328 0.095,-7.87159 3.0476,-15.04352 3.0867,-7.49792 7.952,-12.83394 4.8989,-5.41752 11.6677,-7.96845 6.8023,-2.63243 15.5848,-1.97162 8.7345,0.54576 19.2479,4.87376 4.0414,1.75901 6.8268,3.09628 l -21.3045,51.75197 q 5.6282,1.8404 10.3789,1.4133 4.6692,-0.4606 8.4562,-2.7141 3.7391,-2.3685 6.6918,-6.2997 2.8712,-3.9648 4.9848,-9.0993 z m -55.5097,-13.79688 q -1.5098,3.66746 -1.2985,7.09029 0.1297,3.38927 1.6209,6.48119 1.4432,2.9769 4.0369,5.4743 2.5937,2.4974 5.9304,4.3476 l 12.7827,-31.0512 q -3.5045,-1.44267 -7.004,-1.73959 -3.4661,-0.37842 -6.5197,0.55665 -3.1016,0.82002 -5.5463,3.05418 -2.4926,2.11912 -4.0024,5.78658 z"
           style="font-style:normal;font-variant:normal;font-weight:bold;font-stretch:normal;font-size:180.5px;font-family:Corbel;-inkscape-font-specification:'Corbel, Bold';font-variant-ligatures:normal;font-variant-caps:normal;font-variant-numeric:normal;font-variant-east-asian:normal;stroke-width:0.914299"
           id="path1023" />
        <path
           d="m 1352.2261,895.39633 q -2.6703,-0.57827 -4.7289,0.59913 -2.0398,1.09126 -3.7006,3.34676 -1.7469,2.23684 -3.3171,5.32355 -1.5516,3.00056 -3.1778,6.34568 -2.176,4.21802 -4.6219,8.01687 -2.532,3.7802 -5.8063,6.40768 -3.2557,2.54134 -7.5423,3.59694 -4.3541,0.95081 -10.0392,-0.28036 -6.9772,-1.51099 -11.5184,-5.10958 -4.6273,-3.61726 -7.0726,-8.56553 -2.4267,-5.03441 -2.8508,-10.98781 -0.4054,-6.03954 0.9563,-12.32762 1.6602,-7.66628 4.4073,-14.10524 2.661,-6.45761 5.8174,-11.45526 l 16.6246,3.60025 q -1.5631,2.63736 -3.0285,5.65658 -1.533,2.91443 -2.8448,6.0571 -1.2932,3.05652 -2.3279,6.16902 -1.1209,3.09383 -1.7365,5.93639 -0.7835,3.61779 -0.6353,6.26503 0.1481,2.64724 1.0183,4.45888 0.784,1.79299 2.1852,2.81787 1.3151,1.00622 2.9518,1.36065 2.8425,0.61559 4.9685,-0.45702 2.1447,-1.15875 3.8428,-3.58653 1.6981,-2.42777 3.1075,-5.18858 1.3234,-2.77946 2.6094,-5.38664 1.9664,-4.08305 4.3634,-8.07283 2.3971,-3.98978 5.8135,-6.85703 3.3303,-2.88589 8.0175,-4.12529 4.6196,-1.34419 11.0799,0.0549 7.0634,1.52964 11.7395,5.33782 4.6761,3.80818 7.1632,9.39673 2.4195,5.48376 2.6011,12.55696 0.2864,7.00571 -1.4484,15.01654 -1.7162,7.9247 -4.3887,14.0191 -2.5677,6.02692 -5.3581,9.75116 l -16.4524,-3.56295 q 3.9531,-6.17779 6.1317,-11.65771 2.0926,-5.49856 3.1559,-10.40843 0.8208,-3.79007 1.0128,-7.17524 0.1059,-3.40383 -0.5964,-5.99071 -0.6836,-2.67303 -2.194,-4.44297 -1.5966,-1.7886 -4.1807,-2.34823 z"
           style="font-style:normal;font-variant:normal;font-weight:bold;font-stretch:normal;font-size:180.5px;font-family:Corbel;-inkscape-font-specification:'Corbel, Bold';font-variant-ligatures:normal;font-variant-caps:normal;font-variant-numeric:normal;font-variant-east-asian:normal;fill:#ffffff;stroke-width:0.914299"
           id="path1025" />
      </g>
      <g
         aria-label="HT Direct"
         id="text957"
         style="font-style:normal;font-variant:normal;font-weight:bold;font-stretch:normal;font-size:184.916px;line-height:1.25;font-family:Corbel;-inkscape-font-specification:'Corbel, Bold';font-variant-ligatures:normal;font-variant-caps:normal;font-variant-numeric:normal;font-variant-east-asian:normal;letter-spacing:10.3594px;display:inline;fill:#ffffff;fill-opacity:1;stroke:none;stroke-width:0.963104;stroke-opacity:1"
         inkscape:label="Upper Text">
        <path
           inkscape:label="H"
           d="m 373.00453,360.96292 42.13592,-36.85611 -32.75438,-37.4466 16.65048,-14.56411 79.53786,90.93204 -16.65049,14.5641 -34.59718,-39.55339 -42.13592,36.8561 34.59718,39.5534 -16.65048,14.56411 -79.53786,-90.93204 16.65049,-14.5641 z"
           id="path978" />
        <path
           inkscape:label="T"
           d="m 556.74224,320.18421 -19.81438,9.83576 -45.48539,-91.63139 -34.93801,17.34306 -8.22992,-16.57938 89.60952,-44.48174 8.22992,16.57938 -34.85713,17.30292 z"
           id="path980" />
        <path
           inkscape:label="D"
           d="m 665.3618,281.51236 -12.84025,-120.12507 31.78197,-3.3972 q 4.21964,-0.45104 8.55785,-0.64234 4.42799,-0.20089 8.61543,-0.10366 4.18744,0.0972 8.13433,0.4926 3.9373,0.30558 7.28452,1.03746 9.9327,2.02567 17.85123,6.44596 7.91853,4.4203 13.61453,10.98507 5.78579,6.55518 9.24009,15.08487 3.53448,8.43032 4.62849,18.66519 1.03643,9.69619 -0.2066,18.45557 -1.25263,8.6696 -4.9033,16.14264 -3.65066,7.47304 -9.80833,13.57956 -6.07749,6.00715 -14.87034,10.39762 -7.32417,3.68866 -16.86682,6.16157 -9.54265,2.4729 -21.66289,3.76845 z m 29.09643,-21.72523 q 19.30261,-2.06327 29.59974,-8.52146 9.0978,-5.78515 13.06642,-15.3807 3.96862,-9.59555 2.46195,-23.69095 -0.78692,-7.36192 -3.03633,-13.11463 -2.24941,-5.75272 -5.79134,-10.00519 -3.55153,-4.34226 -8.3058,-7.19387 -4.6645,-2.8612 -10.37137,-4.43052 -5.32856,-1.42815 -11.7091,-1.65418 -6.38053,-0.22603 -14.19136,0.60887 l -9.69619,1.03643 8.90565,83.31545 z"
           id="path982" />
        <path
           inkscape:label="i"
           d="m 808.46239,187.35 21.31349,1.91073 -7.81224,87.14252 -21.31349,-1.91074 z m 3.32219,-43.12502 22.39266,2.00748 -2.07198,23.1121 -22.39266,-2.00748 z"
           id="path984" />
        <path
           inkscape:label="r"
           d="m 922.21019,223.73777 -1.76154,-0.39746 q -9.60038,-2.16615 -17.56656,-0.90907 -7.85824,1.18887 -13.15319,6.19574 l -12.89755,57.16188 -20.87422,-4.70989 19.2569,-85.34648 17.26307,3.8951 -0.74516,12.32759 0.35231,0.0795 q 5.16982,-5.68303 12.4341,-7.93153 7.37222,-2.3167 16.44414,-0.26979 3.17077,0.71543 5.38127,1.58443 z"
           id="path986" />
        <path
           inkscape:label="e"
           d="m 976.16024,303.20491 q 5.72871,2.44863 12.45239,3.94784 6.72368,1.49921 14.03927,2.07309 l -6.70713,15.69168 q -4.52889,0.0281 -13.05501,-1.84878 -8.52613,-1.87686 -16.99466,-5.49658 -8.55155,-3.6552 -15.35018,-9.11417 -6.68012,-5.50651 -10.31507,-12.8536 -3.63495,-7.3471 -3.70315,-16.60641 0.0148,-9.22382 4.77014,-20.34914 4.68434,-10.95927 11.35253,-17.8302 6.6682,-6.87093 14.28847,-9.99634 7.62026,-3.12542 15.56389,-2.87224 8.06214,0.20563 15.36832,3.32853 7.63825,3.26484 13.03755,8.32206 5.4823,5.09271 8.0024,12.06149 2.6032,7.00427 1.8056,15.99173 -0.679,8.93993 -5.2569,19.65012 -1.8574,4.11575 -3.2655,6.95065 l -52.72069,-22.53451 q -1.96253,5.7401 -1.5903,10.61247 0.40771,4.78935 2.66407,8.69959 2.37488,3.8627 6.3614,6.94137 4.022,2.99564 9.25256,5.23135 z M 991.0558,246.5317 q -3.73611,-1.59693 -7.24526,-1.42757 -3.47367,0.0863 -6.66145,1.57138 -3.06926,1.43751 -5.66316,4.06014 -2.59389,2.62263 -4.53497,6.01526 l 31.63243,13.5207 q 1.52601,-3.57006 1.87821,-7.15085 0.4352,-3.5453 -0.4807,-6.68621 -0.79741,-3.18844 -3.05245,-5.72341 -2.13653,-2.5825 -5.87265,-4.17944 z"
           id="path988" />
        <path
           inkscape:label="c"
           d="m 1077.0279,378.55655 q -4.3193,-0.89195 -9.8184,-3.25439 -5.5504,-2.28809 -10.9043,-5.97573 -7.8077,-5.3778 -13.0378,-12.26933 -5.2302,-6.89153 -7.1623,-14.9102 -1.9322,-8.01867 -0.069,-16.93153 1.9144,-8.98722 8.3165,-18.28211 7.1704,-10.41027 15.6383,-15.5414 8.4679,-5.13114 16.9228,-6.10498 8.5806,-0.99699 16.6838,1.40492 8.2288,2.37877 14.6981,6.83466 4.8333,3.32912 8.6803,7.29445 3.8981,3.89098 6.5174,7.8878 l -9.8849,14.35131 q -2.2987,-3.66638 -5.4533,-7.04519 -3.029,-3.40195 -7.2674,-6.32132 -4.2385,-2.91938 -9.0271,-4.24421 -4.7373,-1.39919 -9.658,-0.62223 -4.9206,0.77696 -9.9319,4.23237 -4.8857,3.43227 -9.3928,9.97587 -3.2779,4.75898 -4.8588,9.91935 -1.5297,5.08602 -1.0502,9.80177 0.5539,4.76696 3.2145,9.34045 2.7862,4.55034 8.2144,8.28919 4.8333,3.32911 9.4402,5.07696 4.6068,1.74784 9.0748,2.74222 z"
           id="path990" />
        <path
           inkscape:label="t"
           d="m 1135.9479,436.75783 q -3.3346,-1.76022 -7.3825,-4.85535 -3.9836,-3.03181 -7.0734,-6.071 -7.8531,-7.7246 -10.4046,-15.17371 -2.4239,-7.45016 0.2017,-14.23967 1.8753,-4.86789 7.6371,-10.72556 l 31.7848,-32.31376 -11.651,-11.46027 12.3467,-12.55215 11.651,11.46026 17.1587,-17.44428 15.2557,15.00599 -17.1587,17.44428 18.0236,17.72859 -12.3467,12.55216 -18.0236,-17.72859 -29.822,30.31828 q -3.5458,3.60473 -4.161,6.4191 -0.9815,4.86051 4.7475,10.49567 2.6391,2.59597 5.5938,4.74241 3.0824,2.14538 6.0329,3.78107 z"
           id="path992" />
      </g>
    </g>
  </g>
</svg>
